<?xml version="1.0" encoding="UTF-8" standalone="no"?>
<!-- Created with Inkscape (http://www.inkscape.org/) -->

<svg
   xmlns:dc="http://purl.org/dc/elements/1.1/"
   xmlns:cc="http://creativecommons.org/ns#"
   xmlns:rdf="http://www.w3.org/1999/02/22-rdf-syntax-ns#"
   xmlns:svg="http://www.w3.org/2000/svg"
   xmlns="http://www.w3.org/2000/svg"
   xmlns:sodipodi="http://sodipodi.sourceforge.net/DTD/sodipodi-0.dtd"
   xmlns:inkscape="http://www.inkscape.org/namespaces/inkscape"
   width="179.91667mm"
   height="183.62079mm"
   viewBox="0 0 179.91667 183.62079"
   version="1.1"
   id="svg8"
   sodipodi:docname="New document 1.2019_02_02_13_37_36.0.svg"
   inkscape:export-filename="/home/edward/Pictures/catImage.png"
   inkscape:export-xdpi="96"
   inkscape:export-ydpi="96"
   inkscape:version="0.92.4 5da689c313, 2019-01-14">
  <defs
     id="defs2" />
  <sodipodi:namedview
     id="base"
     pagecolor="#ffffff"
     bordercolor="#666666"
     borderopacity="1.0"
     inkscape:pageopacity="0.0"
     inkscape:pageshadow="2"
     inkscape:zoom="0.5"
     inkscape:cx="303.83743"
     inkscape:cy="411.30193"
     inkscape:document-units="mm"
     inkscape:current-layer="layer3"
     showgrid="false"
     inkscape:snap-to-guides="false"
     inkscape:window-width="1318"
     inkscape:window-height="693"
     inkscape:window-x="24"
     inkscape:window-y="51"
     inkscape:window-maximized="0" />
  <metadata
     id="metadata5">
    <rdf:RDF>
      <cc:Work
         rdf:about="">
        <dc:format>image/svg+xml</dc:format>
        <dc:type
           rdf:resource="http://purl.org/dc/dcmitype/StillImage" />
        <dc:title></dc:title>
      </cc:Work>
    </rdf:RDF>
  </metadata>
  <g
     inkscape:groupmode="layer"
     id="layer2"
     inkscape:label="shapes"
     transform="translate(-14.363091,-48.367317)">
    <circle
       id="path4231"
       cx="104.32143"
       cy="142.02977"
       r="89.958336"
       style="fill:#cccccc;stroke-width:0.26458332" />
    <circle
       style="fill:#ffffff;stroke-width:0.26458332"
       r="89.958336"
       cy="138.32565"
       cx="104.32143"
       id="circle264" />
  </g>
  <g
     inkscape:groupmode="layer"
     id="layer3"
     inkscape:label="text"
     transform="translate(-14.363091,-48.367317)">
    <g
       aria-label="AV"
       style="font-style:normal;font-weight:normal;font-size:10.58333302px;line-height:1.25;font-family:sans-serif;letter-spacing:0px;word-spacing:0px;fill:#666666;fill-opacity:1;stroke:none;stroke-width:0.26458332"
       id="text259">
      <path
         d="m 81.752021,178.09358 -8.268229,21.7041 H 89.89106 Z m -1.653645,-2.60966 h 3.384806 l 14.753622,38.57646 H 95.291247 L 90.692044,201.94226 H 72.682807 l -4.573364,12.11812 h -2.738851 z"
         style="font-style:normal;font-variant:normal;font-weight:200;font-stretch:normal;font-size:52.91666794px;font-family:'DejaVu Sans';-inkscape-font-specification:'DejaVu Sans Ultra-Light';text-align:center;letter-spacing:7.9375px;text-anchor:middle;fill:#666666;stroke-width:0.26458332"
         id="path124" />
      <path
         d="m 120.82457,214.06038 -14.72778,-38.57646 h 2.94556 l 13.53922,35.99264 13.64258,-35.99264 h 2.71301 l -14.70194,38.57646 z"
         style="font-style:normal;font-variant:normal;font-weight:200;font-stretch:normal;font-size:52.91666794px;font-family:'DejaVu Sans';-inkscape-font-specification:'DejaVu Sans Ultra-Light';text-align:center;letter-spacing:7.9375px;text-anchor:middle;fill:#666666;stroke-width:0.26458332"
         id="path126" />
    </g>
  </g>
  <g
     transform="translate(-14.363091,-48.367317)"
     inkscape:label="text copy"
     id="g122"
     inkscape:groupmode="layer"
     style="display:none">
    <text
       id="text120"
       y="214.06038"
       x="102.23138"
       style="font-style:normal;font-weight:normal;font-size:10.58333302px;line-height:1.25;font-family:sans-serif;letter-spacing:0px;word-spacing:0px;fill:#666666;fill-opacity:1;stroke:none;stroke-width:0.26458332"
       xml:space="preserve"><tspan
         dx="0"
         style="font-style:normal;font-variant:normal;font-weight:200;font-stretch:normal;font-size:52.91666794px;font-family:'DejaVu Sans';-inkscape-font-specification:'DejaVu Sans Ultra-Light';text-align:center;letter-spacing:7.9375px;text-anchor:middle;fill:#666666;stroke-width:0.26458332"
         y="214.06038"
         x="106.20013"
         id="tspan118"
         sodipodi:role="line">AV</tspan></text>
  </g>
  <g
     inkscape:label="cat"
     inkscape:groupmode="layer"
     id="layer1"
     transform="translate(-14.363091,-48.367317)">
    <g
       id="g4219"
       transform="matrix(0.22765622,0,0,0.22765622,-20.547913,35.221755)">
      <g
         id="g3955">
        <g
           id="g3953">
          <path
             id="path3951"
             d="m 355.4,248.1 c 10.1,-0.8 20,4 28.6,8.6 8.6,4.6 17.1,9.5 25,15.2 17.2,12.4 31.7,28.9 39,49 1.6,4.5 8.9,2.6 7.2,-2 -7.8,-21.6 -22.9,-39.1 -41.2,-52.6 -8.7,-6.4 -18.1,-11.9 -27.6,-16.9 -9.4,-4.9 -20.2,-9.8 -31.1,-9 -4.6,0.6 -4.7,8.1 0.1,7.7 z"
             inkscape:connector-curvature="0" />
        </g>
      </g>
      <g
         id="g3961">
        <g
           id="g3959">
          <path
             id="path3957"
             d="m 353.6,241.2 c -14.3,10.5 -14.5,32.7 -17,48.7 -4,25.5 -7.6,51.5 1.8,76.3 1.7,4.5 8.9,2.5 7.2,-2 -8.7,-22.9 -5.8,-46.8 -2.1,-70.5 1.3,-8.1 2.2,-16.3 3.8,-24.4 1.5,-7.4 3.5,-16.9 10,-21.6 3.9,-2.9 0.2,-9.4 -3.7,-6.5 z"
             inkscape:connector-curvature="0" />
        </g>
      </g>
      <g
         id="g3967">
        <g
           id="g3965">
          <path
             id="path3963"
             d="m 740.8,240.7 c -10.7,-0.9 -21.1,3.8 -30.4,8.6 -9.8,5 -19.4,10.7 -28.3,17.2 -18.4,13.5 -33.4,31 -41.2,52.6 -1.6,4.5 5.6,6.5 7.2,2 7.3,-20.1 21.8,-36.6 39,-49 7.7,-5.6 16,-10.4 24.4,-14.9 8.9,-4.8 19,-9.8 29.3,-9 4.8,0.4 4.8,-7.1 0,-7.5 z"
             inkscape:connector-curvature="0" />
        </g>
      </g>
      <g
         id="g3973">
        <g
           id="g3971">
          <path
             id="path3969"
             d="m 738.9,247.7 c 6.3,4.6 8.4,13.8 9.8,21 1.7,8.3 2.7,16.7 4,25.1 3.7,23.6 6.6,47.5 -2.1,70.5 -1.7,4.5 5.5,6.5 7.2,2 9.4,-24.8 5.8,-50.8 1.8,-76.3 -2.5,-16 -2.6,-38.2 -17,-48.7 -3.8,-2.9 -7.6,3.6 -3.7,6.4 z"
             inkscape:connector-curvature="0" />
        </g>
      </g>
      <g
         id="g3979">
        <g
           id="g3977">
          <path
             id="path3975"
             d="m 347.4,350.4 c -8,9.5 -12,21 -14.5,33 -2.7,13.4 -4.7,27.2 -6.6,40.7 -3.6,26.3 -5.2,53.8 2.5,79.6 6.5,21.6 19.8,40.7 39.8,51.6 24.6,13.5 54.6,17.6 82.1,21.4 17.2,2.4 34.5,3.6 51.8,4 17.5,0.4 35,1.3 52.6,0.8 4.8,-0.1 4.8,-7.6 0,-7.5 -14.9,0.3 -29.9,-0.2 -44.8,-0.7 -14.4,-0.4 -28.7,-0.8 -43,-2.2 -14.3,-1.4 -28.4,-3.7 -42.6,-6.3 -13,-2.4 -25.9,-5.2 -38.3,-9.7 -22.1,-8.1 -39,-23.3 -47.7,-45.4 -9,-22.8 -9.1,-48 -6.7,-72 1.5,-15 4.1,-29.9 6.6,-44.8 2.2,-13.2 5.1,-26.9 13.9,-37.4 3.3,-3.5 -1.9,-8.8 -5.1,-5.1 z"
             inkscape:connector-curvature="0" />
        </g>
      </g>
      <g
         id="g3985">
        <g
           id="g3983">
          <path
             id="path3981"
             d="m 743.3,355 c 8,9.5 11.1,21.6 13.3,33.5 2.3,12.9 4.4,25.9 6.1,38.8 3.2,24.7 4.4,50.4 -3,74.4 -6.6,21.4 -20.3,39 -40.7,48.7 -11.9,5.7 -24.7,9 -37.5,11.7 -14.3,3 -28.7,5.5 -43.1,7.3 -15.8,1.9 -31.6,2.7 -47.5,3.2 -11.9,0.4 -23.6,1.7 -35.5,1.4 -4.8,-0.1 -4.8,7.4 0,7.5 11.4,0.3 22.5,-0.9 33.9,-1.4 15.5,-0.6 30.9,-1.1 46.3,-2.9 15,-1.7 29.8,-4.2 44.6,-7.2 13.5,-2.7 27,-6.1 39.6,-11.7 21.5,-9.5 37,-26.7 45.2,-48.6 9.1,-24.3 8.9,-51.1 6,-76.6 -1.8,-15.6 -4.3,-31.2 -7.1,-46.7 -2.4,-13.4 -6.3,-26.3 -15.2,-36.8 -3.2,-3.6 -8.5,1.7 -5.4,5.4 z"
             inkscape:connector-curvature="0" />
        </g>
      </g>
      <g
         id="g3991">
        <g
           id="g3989">
          <path
             id="path3987"
             d="m 388.1,413.4 c 5.1,0.2 9.4,-2.5 13.6,-5.2 4.8,-3.1 9.6,-6.3 14.7,-8.9 10.2,-5.3 21.7,-8.4 33.1,-9.7 9.4,-1.1 19.2,-0.8 28.5,1.3 4.8,1.1 9.6,2.6 14,4.9 2.6,1.4 9.5,4.9 10.1,8 0.6,-1.4 1.1,-2.8 1.7,-4.2 1.6,-0.8 -1.3,0 -1.4,0 -4.7,1 -2.7,8.2 2,7.2 1.2,-0.3 2.1,-0.2 3.2,-0.8 1.6,-0.8 2,-2.6 1.7,-4.2 -0.7,-4.2 -5.9,-7.6 -9.2,-9.9 -4.1,-2.8 -8.8,-4.9 -13.6,-6.5 -9.9,-3.3 -20.7,-4.3 -31.1,-3.7 -11.3,0.6 -22.8,2.8 -33.3,6.9 -6.3,2.5 -12,5.7 -17.7,9.2 -4.6,2.8 -10.6,8.4 -16.2,8.2 -5,-0.3 -5,7.2 -0.1,7.4 z"
             inkscape:connector-curvature="0" />
        </g>
      </g>
      <g
         id="g3997">
        <g
           id="g3995">
          <path
             id="path3993"
             d="m 601.4,406.7 c 9.3,-3.4 16.8,-9.9 25.5,-14.5 9.1,-4.8 18.7,-6.7 28.9,-7 18.4,-0.6 39.2,0.2 53.6,13.3 0,-1.8 0,-3.5 0,-5.3 -0.8,0.6 -1.7,1 -2.7,1.2 -4.6,1.5 -2.6,8.7 2,7.2 2.4,-0.7 4.1,-1.5 6,-3.1 1.5,-1.3 1.4,-4 0,-5.3 -15.1,-13.8 -35.8,-15.8 -55.5,-15.6 -10.2,0.1 -20.2,1.2 -29.7,5.1 -10.7,4.4 -19.3,12.8 -30.1,16.8 -4.5,1.6 -2.6,8.9 2,7.2 z"
             inkscape:connector-curvature="0" />
        </g>
      </g>
      <g
         id="g4003">
        <g
           id="g4001">
          <path
             id="path3999"
             d="m 492,451.6 c 8.9,-3.6 17.6,-7.8 26.7,-10.7 9.6,-3 19.6,-5.1 29.4,-7.1 20,-3.9 38.1,0.8 56.2,9.4 4.3,2.1 8.1,-4.4 3.8,-6.5 -18.1,-8.6 -36.5,-14 -56.6,-11.1 -10.5,1.5 -21.1,4.1 -31.4,7 -10.4,3 -20.1,7.6 -30.1,11.7 -4.4,1.9 -2.5,9.2 2,7.3 z"
             inkscape:connector-curvature="0" />
        </g>
      </g>
      <g
         id="g4009">
        <g
           id="g4007">
          <path
             id="path4005"
             d="m 487.2,448 c 0.3,22.5 11.8,44.7 23.7,63.2 12,18.6 24.1,38.8 42.4,51.9 3.9,2.8 7.7,-3.7 3.8,-6.5 C 539.9,544.3 528.6,524.8 517.4,507.4 506.2,490 495,469.2 494.7,448 c -0.1,-4.8 -7.6,-4.8 -7.5,0 z"
             inkscape:connector-curvature="0" />
        </g>
      </g>
      <g
         id="g4015">
        <g
           id="g4013">
          <path
             id="path4011"
             d="m 602.6,439.3 c -3.9,15.8 -10.8,30.6 -16.6,45.8 -3.4,9 -5.9,18.4 -9.5,27.3 -3.7,9.2 -7.9,18.2 -12.3,27 -1.9,3.9 -4,7.7 -6.2,11.5 -1,1.7 -3.2,5.2 -3.9,5.7 -4,2.7 -0.2,9.2 3.8,6.5 5.5,-3.7 8.7,-11.9 11.6,-17.5 4.8,-9.3 9.1,-18.8 13.2,-28.4 3.7,-8.8 6.2,-17.8 9.4,-26.7 6,-16.4 13.6,-32.1 17.9,-49.1 1,-4.8 -6.3,-6.8 -7.4,-2.1 z"
             inkscape:connector-curvature="0" />
        </g>
      </g>
      <g
         id="g4021">
        <g
           id="g4019">
          <path
             id="path4017"
             d="m 498.5,478.1 c 13.8,-9.6 30.4,-15.6 47,-18.1 16.2,-2.4 34.9,-1.2 47.1,11 3.4,3.4 8.7,-1.9 5.3,-5.3 -13.3,-13.2 -33,-15.6 -50.8,-13.4 -18.4,2.3 -37.1,8.7 -52.5,19.3 -3.8,2.7 -0.1,9.2 3.9,6.5 z"
             inkscape:connector-curvature="0" />
        </g>
      </g>
      <g
         id="g4027">
        <g
           id="g4025">
          <path
             id="path4023"
             d="m 452.5,321.6 c 30.4,-7.5 61.2,-16.7 92.8,-17.3 33.2,-0.6 65.8,7.6 97.2,17.3 4.6,1.4 6.6,-5.8 2,-7.2 -32.1,-9.9 -65.4,-18.3 -99.2,-17.6 -32.3,0.6 -63.7,9.9 -94.8,17.6 -4.7,1.1 -2.7,8.4 2,7.2 z"
             inkscape:connector-curvature="0" />
        </g>
      </g>
      <g
         id="g4033">
        <g
           id="g4031">
          <path
             id="path4029"
             d="m 382.8,530.1 c -11.9,16.7 -22.7,34.1 -32.7,52 -2.4,4.2 4.1,8 6.5,3.8 10,-17.9 20.7,-35.3 32.7,-52 2.8,-3.9 -3.7,-7.7 -6.5,-3.8 z"
             inkscape:connector-curvature="0" />
        </g>
      </g>
      <g
         id="g4039">
        <g
           id="g4037">
          <path
             id="path4035"
             d="m 350.7,498 c -12.7,12 -25.4,24.1 -39.2,34.7 -3.8,2.9 0,9.4 3.8,6.5 14.4,-11.1 27.6,-23.5 40.8,-35.9 3.4,-3.3 -1.9,-8.6 -5.4,-5.3 z"
             inkscape:connector-curvature="0" />
        </g>
      </g>
      <g
         id="g4045">
        <g
           id="g4043">
          <path
             id="path4041"
             d="m 342.8,459.4 c -16.5,7.9 -33.8,14 -50,22.7 -4.3,2.3 -0.5,8.8 3.8,6.5 16.2,-8.6 33.5,-14.8 50,-22.7 4.3,-2.1 0.5,-8.5 -3.8,-6.5 z"
             inkscape:connector-curvature="0" />
        </g>
      </g>
      <g
         id="g4051">
        <g
           id="g4049">
          <path
             id="path4047"
             d="m 711.3,528.9 c 11.9,16.7 22.7,34.1 32.7,52 2.4,4.2 8.8,0.4 6.5,-3.8 -10,-17.9 -20.7,-35.3 -32.7,-52 -2.8,-3.9 -9.3,-0.1 -6.5,3.8 z"
             inkscape:connector-curvature="0" />
        </g>
      </g>
      <g
         id="g4057">
        <g
           id="g4055">
          <path
             id="path4053"
             d="m 744.6,498.3 c 13.2,12.5 26.4,24.9 40.8,35.9 3.8,2.9 7.6,-3.6 3.8,-6.5 C 775.3,517 762.6,505 750,493 c -3.6,-3.3 -9,2 -5.4,5.3 z"
             inkscape:connector-curvature="0" />
        </g>
      </g>
      <g
         id="g4063">
        <g
           id="g4061">
          <path
             id="path4059"
             d="m 754,460.9 c 16.5,7.9 33.8,14 50,22.7 4.3,2.3 8,-4.2 3.8,-6.5 -16.2,-8.6 -33.5,-14.8 -50,-22.7 -4.4,-2 -8.2,4.4 -3.8,6.5 z"
             inkscape:connector-curvature="0" />
        </g>
      </g>
      <g
         id="g4069">
        <g
           id="g4067">
          <path
             id="path4065"
             d="m 426.9,324.8 c -4.3,-20.4 -18.3,-37.6 -30.5,-53.9 -10,-13.4 -22.7,-28.4 -40.4,-30.2 -4.8,-0.5 -4.8,7 0,7.5 15.8,1.6 27.6,17.8 36.2,29.6 10.9,15 23.6,30.4 27.5,49 1,4.7 8.2,2.7 7.2,-2 z"
             inkscape:connector-curvature="0" />
        </g>
      </g>
      <g
         id="g4075">
        <g
           id="g4073">
          <path
             id="path4071"
             d="m 677.1,326.8 c 3.9,-18.6 16.5,-34 27.5,-49 8.6,-11.8 20.4,-28 36.2,-29.6 4.8,-0.5 4.8,-8 0,-7.5 -17.8,1.8 -30.4,16.8 -40.4,30.2 -12.2,16.3 -26.3,33.5 -30.5,53.9 -1.1,4.7 6.2,6.7 7.2,2 z"
             inkscape:connector-curvature="0" />
        </g>
      </g>
      <g
         id="g4081">
        <g
           id="g4079">
          <path
             id="path4077"
             d="m 352.7,355.7 c 17.2,-18.7 44.1,-29.8 69.6,-25.4 4.7,0.8 6.7,-6.4 2,-7.2 -28.1,-4.9 -57.7,6.5 -76.9,27.3 -3.2,3.5 2.1,8.8 5.3,5.3 z"
             inkscape:connector-curvature="0" />
        </g>
      </g>
      <g
         id="g4087">
        <g
           id="g4085">
          <path
             id="path4083"
             d="m 748.6,349.7 c -19.1,-20.7 -48,-32.4 -76.1,-27.5 -4.7,0.8 -2.7,8.1 2,7.2 25.4,-4.4 51.7,7 68.8,25.6 3.3,3.6 8.5,-1.7 5.3,-5.3 z"
             inkscape:connector-curvature="0" />
        </g>
      </g>
      <g
         id="g4093">
        <g
           id="g4091">
          <path
             id="path4089"
             d="m 351.3,332 c 12.8,-15.3 30,-24.9 50,-26.9 4.8,-0.5 4.8,-8 0,-7.5 -21.9,2.1 -41.1,12.2 -55.3,29.1 -3.1,3.7 2.2,9 5.3,5.3 z"
             inkscape:connector-curvature="0" />
        </g>
      </g>
      <g
         id="g4099">
        <g
           id="g4097">
          <path
             id="path4095"
             d="m 351.2,305.9 c 6.9,-14.9 23.9,-20.5 38.4,-24.9 4.6,-1.4 2.6,-8.7 -2,-7.2 -16.4,5 -35.2,11.7 -42.9,28.4 -2,4.3 4.5,8.1 6.5,3.7 z"
             inkscape:connector-curvature="0" />
        </g>
      </g>
      <g
         id="g4105">
        <g
           id="g4103">
          <path
             id="path4101"
             d="m 351.6,283 c 2.6,-9 12,-11.8 20.4,-11.9 4.8,-0.1 4.8,-7.6 0,-7.5 -11.9,0.2 -24.1,5.1 -27.6,17.4 -1.4,4.6 5.9,6.6 7.2,2 z"
             inkscape:connector-curvature="0" />
        </g>
      </g>
      <g
         id="g4111">
        <g
           id="g4109">
          <path
             id="path4107"
             d="m 748,329.7 c -14.2,-16.9 -33.4,-27 -55.3,-29.1 -4.8,-0.5 -4.8,7 0,7.5 20,2 37.2,11.6 50,26.9 3.1,3.7 8.3,-1.6 5.3,-5.3 z"
             inkscape:connector-curvature="0" />
        </g>
      </g>
      <g
         id="g4117">
        <g
           id="g4115">
          <path
             id="path4113"
             d="m 749.2,305.1 c -7.7,-16.7 -26.6,-23.4 -42.9,-28.4 -4.6,-1.4 -6.6,5.8 -2,7.2 14.6,4.5 31.5,10.1 38.4,24.9 2.1,4.5 8.5,0.7 6.5,-3.7 z"
             inkscape:connector-curvature="0" />
        </g>
      </g>
      <g
         id="g4123">
        <g
           id="g4121">
          <path
             id="path4119"
             d="M 749.6,284 C 746,271.7 733.9,266.8 722,266.6 c -4.8,-0.1 -4.8,7.4 0,7.5 8.4,0.1 17.8,3 20.4,11.9 1.3,4.6 8.5,2.7 7.2,-2 z"
             inkscape:connector-curvature="0" />
        </g>
      </g>
    </g>
  </g>
</svg>
